<svg xmlns="http://www.w3.org/2000/svg" width="226.547" height="189.836" viewBox="190.738 38.586 226.547 189.836"><title>phone icon 3</title><path d="M254.278 190.947c-15.082 0-45.805-2.743-56.53-24.108-.791-1.494-11.45-22.247-4.881-43.137 3.579-11.356 11.48-20.499 23.545-27.183 0-5.375.934-17.363 8.86-26.08 5.857-6.456 14.219-9.736 24.821-9.762 1.562-.059 15.69-.325 25.803 9.293 6.579 6.247 9.915 15.111 9.915 26.337a4.067 4.067 0 0 1-8.134 0c0-8.909-2.486-15.785-7.383-20.438-7.985-7.585-19.787-7.067-19.904-7.064h-.208c-8.236 0-14.581 2.375-18.872 7.061-7.874 8.616-6.716 22.523-6.703 22.66a4.08 4.08 0 0 1-2.209 4.006c-11.343 5.756-18.674 13.696-21.781 23.591-5.649 17.997 4.23 36.723 4.328 36.912.02.033.036.068.055.104 5.948 11.899 20.9 16.556 32.392 18.365a112.666 112.666 0 0 0 24.632 1.009 4.067 4.067 0 1 1 .892 8.086c-.048.005-.096.01-.144.013-.5.065-3.711.335-8.494.335z"/><path d="M382.601 105.263a4.069 4.069 0 0 1-3.957-3.13c-5.792-24.472-13.217-37.498-25.628-44.959-10.79-6.488-21.602-9.996-32.135-10.412a55.016 55.016 0 0 0-24.55 4.728c-13.709 6.02-21.781 15.739-21.86 15.837a4.069 4.069 0 0 1-6.306-5.142c.368-.452 9.179-11.145 24.56-17.997a63.103 63.103 0 0 1 28.257-5.561c11.984.42 24.18 4.324 36.219 11.577 14.496 8.714 23.002 23.213 29.353 50.054a4.07 4.07 0 0 1-3.96 5.005h.007z"/><path d="M357.549 189.626a2.766 2.766 0 0 1 0-5.532c19.793 0 34.546-4.936 43.846-14.668 10.842-11.343 10.338-25.338 10.334-25.478v-.127c0-13.325-3.937-23.428-11.694-29.997-14.545-12.335-37.895-8.636-38.126-8.597a2.767 2.767 0 1 1-.904-5.46c1.058-.172 26.129-4.136 42.606 9.836 9.046 7.673 13.637 19.165 13.666 34.166.046 1.334.306 16.751-11.864 29.483-10.402 10.862-26.502 16.374-47.864 16.374zm-47.715 12.924a4.067 4.067 0 0 1-4.067-4.067v-59.868a4.067 4.067 0 0 1 8.134 0v59.871a4.067 4.067 0 0 1-4.067 4.064z"/><path d="M344.426 193.846h-69.184l34.589 34.576z"/></svg>