<svg xmlns="http://www.w3.org/2000/svg" width="365.768" height="127.593" viewBox="0 0 365.768 127.593"><path d="M288.75 86.472c-25.867 0-22.696 29.651-22.696 29.651H125.507c0-30.804-22.445-29.984-22.445-29.984-25.867 0-23.103 29.984-23.103 29.984l-69.471-4.264C-.324 111.859.001 99.738.001 99.738V14.539s.658-6.23 8.521-6.23h116.623S126.963-.56 140.473.12h103.956s7.206-1.641 12.446 7.228h71.134s14.744 0 18.351 9.519c0 0 17.043 47.514 17.368 58.659 0 0 4.59 15.069 0 30.471 0 0-1.641 10.162-16.06 10.162h-36.391c-.001-31.661-22.527-29.687-22.527-29.687zM69.11 13.556H12.432v33.45h56.686l-.008-33.45zm61.607 0H74.024v33.45h56.693v-33.45zm60.292 0h-56.685v33.45h56.686v-33.45h-.001zm61.194 0h-56.686v33.45h56.686v-33.45zm61.342 0h-56.671v33.45h56.693l-.022-33.45zm32.607 51.771c7.125 0 5.912-7.287 5.912-7.287l-11.492-35.571c-1.234-3.414-2.491-5.314-3.126-5.831a14.435 14.435 0 0 0-9.793-3.082s-5.972 0-5.912 6.881V59.43s-1.316 5.912 7.206 5.912l17.205-.015z"/><path d="M120.393 109.567c0 9.955-8.07 18.026-18.026 18.026-9.955 0-18.026-8.07-18.026-18.026 0-9.955 8.07-18.026 18.026-18.026h.007c9.951 0 18.018 8.067 18.018 18.018l.001.008zm-18.019-10.901c-6.021 0-10.901 4.881-10.901 10.901s4.881 10.901 10.901 10.901 10.901-4.881 10.901-10.901c.001-6.02-4.88-10.901-10.901-10.901zm204.475 10.901c0 9.955-8.07 18.026-18.026 18.026-9.955 0-18.026-8.07-18.026-18.026s8.07-18.026 18.026-18.026h.015c9.95.009 18.011 8.077 18.011 18.026zm-18.011-10.901c-6.02 0-10.901 4.881-10.901 10.901s4.881 10.901 10.901 10.901 10.901-4.881 10.901-10.901c.004-6.016-4.87-10.897-10.886-10.901h-.015z"/></svg>