<svg xmlns="http://www.w3.org/2000/svg" width="217.604" height="217.633" viewBox="203.249 26.762 217.604 217.633"><title>phone icon 3</title><path d="M378.149 244.395c-9.056 0-19.989-2.278-32.015-6.807-26.356-9.941-55.052-29.584-80.774-55.316s-45.375-54.424-55.316-80.79c-9.043-23.971-9.062-43.647-.052-52.651 1.302-1.302 2.603-2.684 3.973-4.119 8.223-8.646 17.509-18.375 29.822-17.935 8.483.351 16.702 5.623 25.12 16.097 24.873 30.935 13.666 41.955.683 54.737l-2.278 2.278c-2.125 2.122-6.137 11.951 31.182 49.267 12.179 12.182 22.566 21.098 30.866 26.49 5.206 3.4 14.555 8.525 18.404 4.705l2.278-2.33c12.765-12.947 23.789-24.124 54.701.726 10.474 8.418 15.739 16.631 16.09 25.13.504 12.303-9.296 21.615-17.948 29.828-1.428 1.36-2.818 2.678-4.113 3.966-4.461 4.479-11.613 6.724-20.623 6.724zM242.902 34.091c-8.746 0-16.644 8.317-23.636 15.674-1.406 1.477-2.766 2.912-4.106 4.253-6.713 6.703-6.029 24.323 1.728 44.903 9.589 25.416 28.634 53.188 53.653 78.197s52.762 44.044 78.2 53.627c20.574 7.774 38.194 8.431 44.903 1.734 1.341-1.341 2.776-2.701 4.253-4.1 7.52-7.159 16.045-15.238 15.674-24.219-.257-6.182-4.751-12.811-13.36-19.728-25.758-20.714-32.962-13.403-44.903-1.302l-2.343 2.366c-5.707 5.717-14.968 4.448-27.573-3.735-8.73-5.678-19.523-14.916-32.054-27.456-31-30.948-40.911-49.898-31.214-59.618l2.336-2.304c12.143-11.948 19.471-19.156-1.253-44.929-6.931-8.6-13.562-13.094-19.731-13.341-.193-.022-.382-.022-.574-.022z"/></svg>