<svg xmlns="http://www.w3.org/2000/svg" width="305.076" height="129.926" viewBox="158.645 94.717 305.076 129.926"><title>Mellor TCO Icons</title><path d="M255.972 204.319c0 9.955-8.07 18.026-18.026 18.026-9.955 0-18.026-8.07-18.026-18.026 0-9.955 8.07-18.026 18.026-18.026s18.026 8.071 18.026 18.026zm-18.025-10.901c-6.02.012-10.891 4.903-10.879 10.923.012 6.02 4.903 10.891 10.923 10.879 6.012-.012 10.879-4.889 10.879-10.901 0-6.021-4.881-10.901-10.901-10.901h-.022zm157.995 13.193c.004 9.955-8.063 18.029-18.018 18.033-9.955.004-18.029-8.063-18.033-18.018s8.063-18.029 18.018-18.033h.015c9.95.003 18.014 8.068 18.018 18.018zm-18.018-10.894c-6.021-.004-10.904 4.873-10.908 10.894s4.873 10.904 10.894 10.908c6.021.004 10.904-4.873 10.908-10.894v-.015c0-6.005-4.859-10.877-10.864-10.894h-.03z"/><path d="M378.116 181.224c-25.867 0-22.689 29.651-22.689 29.651H261.05c0-30.804-22.445-29.984-22.445-29.984-25.867 0-23.103 29.984-23.103 29.984l-46.368-4.264c-10.812 0-10.487-12.121-10.487-12.121v-85.198s.658-6.23 8.521-6.23h122.964s1.818-8.869 15.328-8.189l34.647-.037s7.206-1.633 12.453 7.228h64.815s14.744 0 18.351 9.519c0 0 17.035 47.514 17.368 58.659 0 0 4.582 15.069 0 30.471 0 0-1.641 10.162-16.06 10.162H400.65c0-31.624-22.534-29.651-22.534-29.651zm-150.324-72.915h-56.693v33.42h56.693v-33.42zm60.869 0h-55.954v33.42h55.954v-33.42zm61.031 0h-56.693v96.011h56.693v-96.011zm85.856 51.734c7.125 0 5.912-7.287 5.912-7.287l-11.522-35.534c-1.242-3.414-2.491-5.314-3.134-5.831a14.428 14.428 0 0 0-9.792-3.082s-5.964 0-5.912 6.881v38.993s-1.308 5.912 7.213 5.912l17.235-.052zm-81.355-51.734v33.42h52.835v-33.45l-52.835.03z"/><path d="M435.711 111.597l13.71 43.36 7.59 1.862c1.478.37-1.478-.495-1.478-.495s8.026.983 8.189 9.837v34.078s-.82 10.65-10.65 10.65h-42.008l25.527-22.297h18.513l-2.04-18.351"/></svg>