<?xml version="1.0" encoding="UTF-8"?>
<!DOCTYPE svg PUBLIC "-//W3C//DTD SVG 1.1//EN" "http://www.w3.org/Graphics/SVG/1.1/DTD/svg11.dtd">
<svg xmlns="http://www.w3.org/2000/svg">
<symbol id="download" viewBox="190.738 38.586 226.547 189.836">
    <title>
        phone icon 3
    </title>
    <path d="M254.278 190.947c-15.082 0-45.805-2.743-56.53-24.108-.791-1.494-11.45-22.247-4.881-43.137 3.579-11.356 11.48-20.499 23.545-27.183 0-5.375.934-17.363 8.86-26.08 5.857-6.456 14.219-9.736 24.821-9.762 1.562-.059 15.69-.325 25.803 9.293 6.579 6.247 9.915 15.111 9.915 26.337a4.067 4.067 0 0 1-8.134 0c0-8.909-2.486-15.785-7.383-20.438-7.985-7.585-19.787-7.067-19.904-7.064h-.208c-8.236 0-14.581 2.375-18.872 7.061-7.874 8.616-6.716 22.523-6.703 22.66a4.08 4.08 0 0 1-2.209 4.006c-11.343 5.756-18.674 13.696-21.781 23.591-5.649 17.997 4.23 36.723 4.328 36.912.02.033.036.068.055.104 5.948 11.899 20.9 16.556 32.392 18.365a112.666 112.666 0 0 0 24.632 1.009 4.067 4.067 0 1 1 .892 8.086c-.048.005-.096.01-.144.013-.5.065-3.711.335-8.494.335z"/>
    <path d="M382.601 105.263a4.069 4.069 0 0 1-3.957-3.13c-5.792-24.472-13.217-37.498-25.628-44.959-10.79-6.488-21.602-9.996-32.135-10.412a55.016 55.016 0 0 0-24.55 4.728c-13.709 6.02-21.781 15.739-21.86 15.837a4.069 4.069 0 0 1-6.306-5.142c.368-.452 9.179-11.145 24.56-17.997a63.103 63.103 0 0 1 28.257-5.561c11.984.42 24.18 4.324 36.219 11.577 14.496 8.714 23.002 23.213 29.353 50.054a4.07 4.07 0 0 1-3.96 5.005h.007z"/>
    <path d="M357.549 189.626a2.766 2.766 0 0 1 0-5.532c19.793 0 34.546-4.936 43.846-14.668 10.842-11.343 10.338-25.338 10.334-25.478v-.127c0-13.325-3.937-23.428-11.694-29.997-14.545-12.335-37.895-8.636-38.126-8.597a2.767 2.767 0 1 1-.904-5.46c1.058-.172 26.129-4.136 42.606 9.836 9.046 7.673 13.637 19.165 13.666 34.166.046 1.334.306 16.751-11.864 29.483-10.402 10.862-26.502 16.374-47.864 16.374zM309.834 202.55a4.067 4.067 0 0 1-4.067-4.067v-59.868a4.067 4.067 0 0 1 8.134 0v59.871a4.067 4.067 0 0 1-4.067 4.064z"/>
    <path d="M344.426 193.846h-69.184l34.589 34.576z"/>
</symbol>
<symbol id="large" viewBox="0 0 365.768 127.593">
    <path d="M288.75 86.472c-25.867 0-22.696 29.651-22.696 29.651H125.507c0-30.804-22.445-29.984-22.445-29.984-25.867 0-23.103 29.984-23.103 29.984l-69.471-4.264C-.324 111.859.001 99.738.001 99.738V14.539s.658-6.23 8.521-6.23h116.623S126.963-.56 140.473.12h103.956s7.206-1.641 12.446 7.228h71.134s14.744 0 18.351 9.519c0 0 17.043 47.514 17.368 58.659 0 0 4.59 15.069 0 30.471 0 0-1.641 10.162-16.06 10.162h-36.391c-.001-31.661-22.527-29.687-22.527-29.687zM69.11 13.556H12.432v33.45h56.686l-.008-33.45zm61.607 0H74.024v33.45h56.693v-33.45zm60.292 0h-56.685v33.45h56.686v-33.45h-.001zm61.194 0h-56.686v33.45h56.686v-33.45zm61.342 0h-56.671v33.45h56.693l-.022-33.45zm32.607 51.771c7.125 0 5.912-7.287 5.912-7.287l-11.492-35.571c-1.234-3.414-2.491-5.314-3.126-5.831a14.435 14.435 0 0 0-9.793-3.082s-5.972 0-5.912 6.881V59.43s-1.316 5.912 7.206 5.912l17.205-.015z"/>
    <path d="M120.393 109.567c0 9.955-8.07 18.026-18.026 18.026-9.955 0-18.026-8.07-18.026-18.026 0-9.955 8.07-18.026 18.026-18.026h.007c9.951 0 18.018 8.067 18.018 18.018l.001.008zm-18.019-10.901c-6.021 0-10.901 4.881-10.901 10.901s4.881 10.901 10.901 10.901 10.901-4.881 10.901-10.901c.001-6.02-4.88-10.901-10.901-10.901zM306.849 109.567c0 9.955-8.07 18.026-18.026 18.026-9.955 0-18.026-8.07-18.026-18.026s8.07-18.026 18.026-18.026h.015c9.95.009 18.011 8.077 18.011 18.026zm-18.011-10.901c-6.02 0-10.901 4.881-10.901 10.901s4.881 10.901 10.901 10.901 10.901-4.881 10.901-10.901c.004-6.016-4.87-10.897-10.886-10.901h-.015z"/>
</symbol>
<symbol id="phone" viewBox="203.249 26.762 217.604 217.633">
    <title>
        phone icon 3
    </title>
    <path d="M378.149 244.395c-9.056 0-19.989-2.278-32.015-6.807-26.356-9.941-55.052-29.584-80.774-55.316s-45.375-54.424-55.316-80.79c-9.043-23.971-9.062-43.647-.052-52.651 1.302-1.302 2.603-2.684 3.973-4.119 8.223-8.646 17.509-18.375 29.822-17.935 8.483.351 16.702 5.623 25.12 16.097 24.873 30.935 13.666 41.955.683 54.737l-2.278 2.278c-2.125 2.122-6.137 11.951 31.182 49.267 12.179 12.182 22.566 21.098 30.866 26.49 5.206 3.4 14.555 8.525 18.404 4.705l2.278-2.33c12.765-12.947 23.789-24.124 54.701.726 10.474 8.418 15.739 16.631 16.09 25.13.504 12.303-9.296 21.615-17.948 29.828-1.428 1.36-2.818 2.678-4.113 3.966-4.461 4.479-11.613 6.724-20.623 6.724zM242.902 34.091c-8.746 0-16.644 8.317-23.636 15.674-1.406 1.477-2.766 2.912-4.106 4.253-6.713 6.703-6.029 24.323 1.728 44.903 9.589 25.416 28.634 53.188 53.653 78.197s52.762 44.044 78.2 53.627c20.574 7.774 38.194 8.431 44.903 1.734 1.341-1.341 2.776-2.701 4.253-4.1 7.52-7.159 16.045-15.238 15.674-24.219-.257-6.182-4.751-12.811-13.36-19.728-25.758-20.714-32.962-13.403-44.903-1.302l-2.343 2.366c-5.707 5.717-14.968 4.448-27.573-3.735-8.73-5.678-19.523-14.916-32.054-27.456-31-30.948-40.911-49.898-31.214-59.618l2.336-2.304c12.143-11.948 19.471-19.156-1.253-44.929-6.931-8.6-13.562-13.094-19.731-13.341-.193-.022-.382-.022-.574-.022z"/>
</symbol>
<symbol id="strata" viewBox="158.645 94.717 305.076 129.926">
    <title>
        Mellor TCO Icons
    </title>
    <path d="M255.972 204.319c0 9.955-8.07 18.026-18.026 18.026-9.955 0-18.026-8.07-18.026-18.026 0-9.955 8.07-18.026 18.026-18.026s18.026 8.071 18.026 18.026zm-18.025-10.901c-6.02.012-10.891 4.903-10.879 10.923.012 6.02 4.903 10.891 10.923 10.879 6.012-.012 10.879-4.889 10.879-10.901 0-6.021-4.881-10.901-10.901-10.901h-.022zM395.942 206.611c.004 9.955-8.063 18.029-18.018 18.033-9.955.004-18.029-8.063-18.033-18.018s8.063-18.029 18.018-18.033h.015c9.95.003 18.014 8.068 18.018 18.018zm-18.018-10.894c-6.021-.004-10.904 4.873-10.908 10.894s4.873 10.904 10.894 10.908c6.021.004 10.904-4.873 10.908-10.894v-.015c0-6.005-4.859-10.877-10.864-10.894h-.03z"/>
    <path d="M378.116 181.224c-25.867 0-22.689 29.651-22.689 29.651H261.05c0-30.804-22.445-29.984-22.445-29.984-25.867 0-23.103 29.984-23.103 29.984l-46.368-4.264c-10.812 0-10.487-12.121-10.487-12.121v-85.198s.658-6.23 8.521-6.23h122.964s1.818-8.869 15.328-8.189l34.647-.037s7.206-1.633 12.453 7.228h64.815s14.744 0 18.351 9.519c0 0 17.035 47.514 17.368 58.659 0 0 4.582 15.069 0 30.471 0 0-1.641 10.162-16.06 10.162H400.65c0-31.624-22.534-29.651-22.534-29.651zm-150.324-72.915h-56.693v33.42h56.693v-33.42zm60.869 0h-55.954v33.42h55.954v-33.42zm61.031 0h-56.693v96.011h56.693v-96.011zm85.856 51.734c7.125 0 5.912-7.287 5.912-7.287l-11.522-35.534c-1.242-3.414-2.491-5.314-3.134-5.831a14.428 14.428 0 0 0-9.792-3.082s-5.964 0-5.912 6.881v38.993s-1.308 5.912 7.213 5.912l17.235-.052zm-81.355-51.734v33.42h52.835v-33.45l-52.835.03z"/>
    <path d="M435.711 111.597l13.71 43.36 7.59 1.862c1.478.37-1.478-.495-1.478-.495s8.026.983 8.189 9.837v34.078s-.82 10.65-10.65 10.65h-42.008l25.527-22.297h18.513l-2.04-18.351"/>
</symbol>
</svg>