<svg xmlns="http://www.w3.org/2000/svg" width="515.673" height="191.704" viewBox="41.713 52.399 515.673 191.704"><g fill="#FFB109"><path d="M43.93 221h117.288c1.225 0 2.217.993 2.217 2.217v18.669a2.217 2.217 0 0 1-2.217 2.217H43.93a2.217 2.217 0 0 1-2.217-2.217v-18.669c0-1.224.992-2.217 2.217-2.217z"/><path d="M146.304 231.812H58.851a8.87 8.87 0 0 1-8.869-8.869V61.268a8.87 8.87 0 0 1 8.869-8.869h87.453a8.87 8.87 0 0 1 8.869 8.869v161.676a8.868 8.868 0 0 1-8.869 8.868zM133.792 73.167H71.364v53.951h62.428V73.167zm25.091 84.252c13.761 0 13.392 15.52 13.392 15.52l-.266 14.922c0 16.954 6.097 15.483 6.097 15.483 8.802 0 7.176-15.239 7.176-15.239l-.613-36.495a4.375 4.375 0 0 1-4.434-3.193h-10.443c-3.074-7.25-3.074-17.087-3.074-17.087a53.38 53.38 0 0 1 2.956-19.045h10.465v-3.562c0-8.359 4.434-7.989 4.434-7.989 0-27.774-21.625-31.949-21.625-31.949l2.328-6.385c28.38 9.704 25.948 38.217 25.948 38.217 7.006-.251 6.142 5.912 6.142 5.912l-3.074 34.403c0 10.45-2.823 9.955-2.823 9.955l.739 36.31c.488 24.145-14.5 22.911-14.5 22.911-14.042.126-12.165-21.869-12.165-21.869V173.36c-.251-9.46-6.652-9.098-6.652-9.098l-.008-6.843zm21.876-40.796h-9.49s-3.695 14.375 0 27.648h8.728v-18.595s-5.173 9.837-5.173 15.734h-1.7s1.596-13.761 7.391-20.398l.244-4.389zM229.573 221h117.288c1.225 0 2.217.993 2.217 2.217v18.669a2.217 2.217 0 0 1-2.217 2.217H229.573a2.217 2.217 0 0 1-2.217-2.217v-18.669c0-1.224.993-2.217 2.217-2.217z"/><path d="M331.94 231.812h-87.453a8.87 8.87 0 0 1-8.869-8.869V61.268a8.87 8.87 0 0 1 8.869-8.869h87.453a8.87 8.87 0 0 1 8.869 8.869v161.676a8.868 8.868 0 0 1-8.869 8.868zM319.428 73.167H257v53.951h62.421l.007-53.951zm25.091 84.252c13.761 0 13.399 15.52 13.399 15.52l-.251 14.995c0 16.954 6.105 15.483 6.105 15.483 8.802 0 7.169-15.239 7.169-15.239l-.613-36.495a4.375 4.375 0 0 1-4.434-3.193h-10.436c-3.074-7.25-3.074-17.087-3.074-17.087a53.38 53.38 0 0 1 2.956-19.045h10.45v-3.562c0-8.359 4.434-7.989 4.434-7.989 0-27.774-21.625-31.949-21.625-31.949l2.335-6.385c28.387 9.704 25.926 38.217 25.926 38.217 7.006-.251 6.142 5.912 6.142 5.912l-3.067 34.403c0 10.45-2.831 9.955-2.831 9.955l.739 36.31c.495 24.145-14.5 22.911-14.5 22.911-14.005.126-12.165-21.869-12.165-21.869V173.36c-.244-9.46-6.652-9.098-6.652-9.098l-.007-6.843zm21.876-40.796h-9.46s-3.695 14.375 0 27.648h8.706v-18.595s-5.173 9.837-5.173 15.734h-1.7s1.596-13.761 7.391-20.398l.236-4.389zM403.961 221h117.288c1.224 0 2.217.993 2.217 2.217v18.669a2.217 2.217 0 0 1-2.217 2.217H403.961a2.217 2.217 0 0 1-2.217-2.217v-18.669c0-1.224.993-2.217 2.217-2.217z"/><path d="M506.328 231.812h-87.475a8.87 8.87 0 0 1-8.869-8.869V61.268a8.87 8.87 0 0 1 8.869-8.869h87.475a8.87 8.87 0 0 1 8.869 8.869v161.676a8.87 8.87 0 0 1-8.869 8.868zM493.815 73.167h-62.398v53.951h62.421l-.023-53.951zm25.091 84.252c13.769 0 13.399 15.52 13.399 15.52l-.244 14.995c0 16.954 6.097 15.483 6.097 15.483 8.802 0 7.169-15.239 7.169-15.239l-.613-36.495a4.36 4.36 0 0 1-4.434-3.193h-10.435c-3.089-7.331-3.089-17.161-3.089-17.161a53.219 53.219 0 0 1 2.956-19.045h10.443v-3.562c0-8.359 4.434-7.989 4.434-7.989 0-27.774-21.632-31.949-21.632-31.949l2.321-6.385c28.387 9.704 25.926 38.217 25.926 38.217 7.006-.251 6.149 5.912 6.149 5.912l-3.074 34.403c0 10.45-2.823 9.955-2.823 9.955l.739 36.31c.495 24.145-14.5 22.911-14.5 22.911-14.042.126-12.165-21.869-12.165-21.869V173.36c-.244-9.46-6.652-9.098-6.652-9.098l.028-6.843zm21.877-40.796h-9.46s-3.695 14.375 0 27.648h8.736v-18.595s-5.173 9.837-5.173 15.734h-1.7s1.596-13.761 7.391-20.398l.206-4.389z"/></g></svg>