<svg xmlns="http://www.w3.org/2000/svg" width="630.17" height="576.181" viewBox="0 0 630.17 576.181"><path fill="#FFB109" d="M325.951 314.963c-86.836 0-157.482-70.646-157.482-157.481C168.469 70.646 239.115 0 325.951 0s157.482 70.646 157.482 157.482c.001 86.835-70.646 157.481-157.482 157.481zm0-298.964c-78.013 0-141.482 63.469-141.482 141.482s63.469 141.481 141.482 141.481c78.014 0 141.482-63.468 141.482-141.481.001-78.013-63.468-141.482-141.482-141.482z"/><path fill="#FFB109" d="M269.468 239.075v-12.089c16.199-8.22 27.563-24.177 27.563-42.311 0-5.803-.242-10.638-1.209-16.924h-24.903v-15.232h22.485c-1.209-7.253-2.66-16.683-2.66-26.112 0-28.529 19.584-47.146 46.421-47.146 12.572 0 21.276 2.901 26.354 6.044l-4.835 15.957c-4.353-2.418-11.363-4.835-21.519-4.835-18.858 0-26.595 13.056-26.595 30.222 0 10.396 1.451 18.133 2.901 25.87h34.816v15.232h-32.882c.726 9.188 1.209 18.375-.967 27.079-2.66 10.396-8.462 19.101-16.683 26.112v.484h72.049v17.649H269.468zm80.497 310.269c-34.292 0-68.65-10.912-102.122-32.434-14.188-9.123-29.662-13.749-45.994-13.749-28.095 0-49.079 13.569-49.288 13.706a7.998 7.998 0 0 1-11.753-3.556l-54-127a8 8 0 0 1 3.036-9.859c37.135-23.873 76.526-35.978 117.077-35.978 43.201 0 71.639 13.977 72.829 14.571.094.048.187.097.278.146 28.231 15.538 53.619 17.216 63.225 17.216 3.234 0 5.072-.182 5.091-.184.267-.027.559-.043.827-.043h58c39.942 0 56.346 18.866 62.56 30.053l92.581-32.527c6.859-2.829 13.75-4.263 20.483-4.263 29.323 0 45.559 26.493 46.235 27.621a8 8 0 0 1-2.746 10.978c-1.271.762-127.502 76.509-166.321 105.545-35.271 26.381-72.279 39.757-109.998 39.757zm-148.116-62.183c19.451 0 37.837 5.481 54.647 16.29 30.848 19.835 62.295 29.893 93.468 29.893 34.188 0 67.972-12.304 100.413-36.569 34.271-25.634 131.501-84.647 159.944-101.802-5.382-5.812-14.904-13.529-27.528-13.529-4.682 0-9.576 1.051-14.547 3.122a8.118 8.118 0 0 1-.426.163l-99.774 35.055a8.002 8.002 0 0 1-10.401-5.559c-.277-.978-7.843-26.043-50.477-26.043h-57.634c-.925.079-3.089.227-6.284.227-13.44 0-40.485-2.485-70.763-19.102-1.825-.871-27.616-12.832-65.568-12.832-35.375 0-69.895 10.045-102.71 29.874l47.866 112.574c9.93-4.839 27.953-11.762 49.774-11.762z"/><path fill="#FFB109" d="M472.17 446.734H342.256a8 8 0 0 1 0-16h119.946l-2.843-12.821a8.001 8.001 0 0 1 6.079-9.542c4.309-.949 8.586 1.765 9.542 6.079l5 22.553a8.001 8.001 0 0 1-7.81 9.731zM93 576.181a7.998 7.998 0 0 1-7.289-4.705l-85-188a8 8 0 0 1 3.949-10.565l69-31.707c4.014-1.844 8.766-.087 10.609 3.929.332.722.546 1.466.653 2.213l81.404 185.657a8 8 0 0 1-3.839 10.413l-66 31.965a8.01 8.01 0 0 1-3.487.8zM18.565 384.13l78.34 173.271 51.674-25.027-75.902-173.109-54.112 24.865z"/></svg>