<svg id="Layer_1" xmlns="http://www.w3.org/2000/svg" width="643.5" height="173.5" viewBox="0 0 643.5 173.5"><style>.st0{fill:#fff}.st1{fill:#ffc709}</style><path class="st0" d="M158.1 49.4c-8.6-8.6-20.6-13.2-34.6-13.2-1.2 0-12.4.2-23.8 5.9-4.6 2.3-8.6 5.2-12.1 8.7-.4-.5-.8-.9-1.3-1.3-8.6-8.6-20.6-13.2-34.6-13.2-1.2 0-12.4.2-23.8 5.9-16.3 8-25.3 23.3-25.3 43v72c0 7.2 5.8 13 13 13s13-5.8 13-13v-72c0-9.6 3.3-15.8 10.2-19.6 5.9-3.2 12.4-3.4 12.9-3.4 12.6 0 17.1 5.7 19.4 10 3.1 5.8 3.3 12.2 3.3 12.5v72.5c0 7.2 5.8 13 13 13s13-5.8 13-13v-72c0-9.6 3.3-15.8 10.2-19.6 5.9-3.2 12.4-3.4 12.9-3.4 12.6 0 17.1 5.7 19.4 10 3.1 5.8 3.3 12.2 3.3 12.5v72.5c0 7.2 5.8 13 13 13s13-5.8 13-13V84.7c0-2.1-.3-21.4-14.1-35.3z"/><path class="st1" d="M465.3 170.9c-37.2 0-67.4-30.3-67.4-67.4 0-37.2 30.3-67.4 67.4-67.4s67.4 30.3 67.4 67.4-30.2 67.4-67.4 67.4zm0-108.9c-22.9 0-41.4 18.6-41.4 41.4 0 22.9 18.6 41.4 41.4 41.4s41.4-18.6 41.4-41.4S488.1 62 465.3 62z"/><path class="st0" d="M249.5 170.6c-37.2 0-67.4-30.3-67.4-67.4 0-37.2 30.3-67.4 67.4-67.4 37.2 0 67.4 30.3 67.4 67.4 0 7.2-5.8 13-13 13h-93.8c5.5 16.5 21 28.4 39.4 28.4 11.1 0 21.5-4.3 29.3-12.1 5.1-5.1 13.3-5.1 18.4 0 5.1 5.1 5.1 13.3 0 18.4-12.7 12.7-29.6 19.7-47.7 19.7zm-39.3-80.4h78.7c-5.5-16.5-21-28.4-39.4-28.4-18.3-.1-33.8 11.9-39.3 28.4zm128.6 80.7c-7.2 0-13-5.8-13-13V16.5c0-7.2 5.8-13 13-13s13 5.8 13 13v141.4c0 7.2-5.8 13-13 13zM614.4 42.3c-11.4-5.7-22.6-5.9-23.8-5.9-8.8 0-16.9 1.8-23.7 5.3-1.9-4.8-6.6-8.2-12.1-8.2-7.2 0-13 5.8-13 13v110.9c0 7.2 5.8 13 13 13s13-5.8 13-13V85c0-.1.1-6.6 3.3-12.5 2.3-4.3 6.8-10 19.5-10 .1 0 6.3.2 12.2 3.1 7.4 3.7 10.8 10 10.8 19.9 0 7.2 5.8 13 13 13s13-5.8 13-13c-.1-19.7-9-35.1-25.2-43.2zM377.8 170.9c-7.2 0-13-5.8-13-13V16.5c0-7.2 5.8-13 13-13s13 5.8 13 13v141.4c0 7.2-5.8 13-13 13z"/></svg>