<svg xmlns="http://www.w3.org/2000/svg" width="460.565" height="174.417" viewBox="68.407 57.114 460.565 174.417"><title>Mellor TCO Icons</title><path fill="#454545" d="M298.705 57.114c37.101.739 53.426 11.13 53.426 11.13 9.608 1.478 11.13 16.695 11.13 16.695l6.652 49.347v73.388h-11.108V218.9s-1.478 12.616-11.13 12.616c0 0-10.384-1.478-10.384-13.362v-10.48h-77.172v10.48c0 11.877-10.391 13.362-10.391 13.362-9.645 0-11.13-12.616-11.13-12.616v-11.226h-11.16v-73.388l6.652-49.347s1.478-15.21 11.13-16.695c.058 0 16.384-10.383 53.485-11.13zm33.39 19.393v-5.388a2.136 2.136 0 0 0-2.129-2.128h-62.524a2.137 2.137 0 0 0-2.129 2.128v5.388a2.136 2.136 0 0 0 2.129 2.128h62.524a2.134 2.134 0 0 0 2.129-2.128zm25.328 57.299l-5.38-39.48a6.718 6.718 0 0 0-6.696-6.696h-93.38a6.718 6.718 0 0 0-6.696 6.696l-5.269 39.48a6.711 6.711 0 0 0 6.652 6.696h104.059a6.71 6.71 0 0 0 6.71-6.696zm-105.974 32.851a9.326 9.326 0 0 0-9.334 9.319 9.326 9.326 0 0 0 9.319 9.334 9.326 9.326 0 0 0 9.334-9.319v-.015c-.003-5.145-4.173-9.315-9.319-9.319zm96.654 0a9.326 9.326 0 0 0-9.334 9.319 9.326 9.326 0 0 0 9.319 9.334 9.326 9.326 0 0 0 9.334-9.319v-.015c.001-5.146-4.172-9.319-9.319-9.319zM139.645 57.114c37.101.739 53.426 11.13 53.426 11.13 9.645 1.478 11.13 16.695 11.13 16.695l6.652 49.347v73.366h-11.108v11.226s-1.478 12.616-11.13 12.616c0 0-10.391-1.478-10.391-13.355v-10.458h-77.165v10.487c0 11.884-10.391 13.362-10.391 13.362-9.608 0-11.13-12.616-11.13-12.616V207.68h-11.13v-73.366l6.652-49.347s1.478-15.21 11.13-16.695c.029.002 16.347-10.382 53.455-11.158zm33.391 19.393v-5.351a2.143 2.143 0 0 0-2.136-2.128h-62.517a2.136 2.136 0 0 0-2.151 2.121v5.395a2.135 2.135 0 0 0 2.128 2.128h62.54a2.143 2.143 0 0 0 2.136-2.136v-.029zm25.327 57.299l-5.38-39.48a6.718 6.718 0 0 0-6.696-6.696H92.929a6.71 6.71 0 0 0-6.652 6.696l-5.292 39.48a6.718 6.718 0 0 0 6.696 6.696h103.985a6.718 6.718 0 0 0 6.696-6.666l.001-.03zM92.382 166.687a9.327 9.327 0 1 0 9.327 9.327v-.007a9.326 9.326 0 0 0-9.327-9.32zm96.661 0a9.327 9.327 0 0 0-9.334 9.32 9.327 9.327 0 0 0 18.653.014v-.015c-.003-5.145-4.173-9.315-9.319-9.319zM457.764 57.114c37.101.739 53.426 11.13 53.426 11.13 9.608 1.478 11.13 16.695 11.13 16.695l6.651 49.347v73.388h-11.086V218.9s-1.478 12.616-11.13 12.616c0 0-10.391-1.478-10.391-13.362v-10.48h-77.187v10.48c0 11.877-10.384 13.362-10.384 13.362-9.645 0-11.13-12.616-11.13-12.616v-11.226h-11.13v-73.388l6.652-49.347s1.478-15.21 11.13-16.695c.023 0 16.349-10.383 53.449-11.13zm33.391 19.393v-5.388c0-1.161-.93-2.108-2.092-2.128h-62.524a2.135 2.135 0 0 0-2.128 2.128v5.388a2.135 2.135 0 0 0 2.128 2.128h62.524a2.135 2.135 0 0 0 2.092-2.128zm25.335 57.299l-5.388-39.48a6.71 6.71 0 0 0-6.696-6.696h-93.38a6.718 6.718 0 0 0-6.696 6.696l-5.284 39.48a6.718 6.718 0 0 0 6.696 6.696h104.052a6.718 6.718 0 0 0 6.696-6.696zm-105.981 32.851a9.326 9.326 0 0 0-9.334 9.319 9.326 9.326 0 0 0 9.319 9.334 9.326 9.326 0 0 0 9.334-9.319v-.015c.001-5.146-4.172-9.319-9.319-9.319zm96.654 0a9.327 9.327 0 1 0 9.327 9.327v-.007a9.327 9.327 0 0 0-9.327-9.32z"/></svg>